<svg xmlns="http://www.w3.org/2000/svg" viewBox="0 0 307.53 45"><path d="M37,4.08h8v16l14.82-16h9.7L54.66,19.58l15.55,21H60.56L49.24,25.06,45,29.44V40.6H37Z" fill="#ed1c24"/><path d="M88.66,3.82h7.41L111.72,40.6h-8.4L100,32.41H84.54L81.2,40.6H73Zm8.45,21.5L92.26,13.47,87.4,25.32Z" fill="#333"/><path d="M120.19,11.49H109.07V4.08h30.26v7.41H128.22V40.6h-8Z" fill="#333"/><path d="M152.35,3.82h7.41L175.41,40.6H167l-3.34-8.19H148.23l-3.34,8.19H136.7Zm8.45,21.5L156,13.47,151.1,25.32Z" fill="#333"/><path d="M180,4.08h14.93A17.45,17.45,0,0,1,200.8,5a12.47,12.47,0,0,1,4.39,2.58,11.17,11.17,0,0,1,2.76,4,13.15,13.15,0,0,1,1,5.14v.1a12.89,12.89,0,0,1-1.15,5.59,11.43,11.43,0,0,1-3.16,4,13.67,13.67,0,0,1-4.69,2.43,19.92,19.92,0,0,1-5.77.81h-6.1v11h-8Zm14.4,18.42a6.54,6.54,0,0,0,4.7-1.59A5.23,5.23,0,0,0,200.78,17v-.1A5,5,0,0,0,199,12.75a7.39,7.39,0,0,0-4.77-1.41h-6.21V22.5Z" fill="#333"/><path d="M229.5,41.18q-7.35,0-11.58-4.07T213.7,25V4.08h8V24.75q0,4.48,2.09,6.75a7.48,7.48,0,0,0,5.79,2.27,7.61,7.61,0,0,0,5.79-2.19q2.08-2.19,2.09-6.58V4.08h8V24.69a21.12,21.12,0,0,1-1.12,7.25,13.63,13.63,0,0,1-3.21,5.14,13.09,13.09,0,0,1-5.06,3.08A20.32,20.32,0,0,1,229.5,41.18Z" fill="#333"/><path d="M253.51,4.08h8V33.35h18.2V40.6H253.51Z" fill="#333"/><path d="M288.39,11.49H277.27V4.08h30.26v7.41H296.42V40.6h-8Z" fill="#333"/><path d="M3.54,22.9H19.92C18.26,27.63,12.16,45,11.73,45S5.21,27.63,3.54,22.9Z" fill="#333"/><path d="M22.9,21.11a19.67,19.67,0,0,0,.55-3.64c-.14-2.71-1.64-4-3.71-3.84-.4,0,1-1.19.57-3.41-.26-1.33-1-2.84-3.74-3.4,0,0,1.39-4.24-1.46-6a5.65,5.65,0,0,0-5.69,0s1.78,0,1.39,1.39S6.27,3.29,7.57,6.49c.22.56-1.6.21-2.54.69a2.92,2.92,0,0,0-1,4.63s-.93.73-1.49,1.06A4.82,4.82,0,0,0,0,17.57s.2,2.71,1.79,3.54H21s0-.08-.28,1.33c-.54,2.55-1.05,8.1.75,8.07C24.16,30.48,22.74,22.11,22.9,21.11Z" fill="#ed1c24"/></svg>
