<svg xmlns="http://www.w3.org/2000/svg" viewBox="0 0 86.694 19.101"><path d="M9.331,18.806a9.019,9.019,0,0,1,6.678,2.8,9.2,9.2,0,0,1,2,3.081,10.247,10.247,0,0,1,.007,7.349,8.733,8.733,0,0,1-1.994,3.026,9.619,9.619,0,0,1-3.1,2.116,9.123,9.123,0,0,1-3.59.732,8.939,8.939,0,0,1-3.55-.724,9.385,9.385,0,0,1-3.036-2.1,9.625,9.625,0,0,1,.025-13.5A8.735,8.735,0,0,1,9.331,18.806Zm.034,1.721a7.159,7.159,0,0,0-5.392,2.287,8.207,8.207,0,0,0-1.695,2.565,7.712,7.712,0,0,0,0,5.936,7.89,7.89,0,0,0,1.695,2.54,7.655,7.655,0,0,0,2.485,1.707,7.359,7.359,0,0,0,2.907.589,7.442,7.442,0,0,0,2.912-.6,8.107,8.107,0,0,0,2.547-1.722,7.44,7.44,0,0,0,2.187-5.475,7.938,7.938,0,0,0-.571-3,7.647,7.647,0,0,0-1.651-2.525A7.323,7.323,0,0,0,9.365,20.527Zm-.118,6.245-1.253.662a1.3,1.3,0,0,0-.491-.6,1.083,1.083,0,0,0-.544-.172q-1.248,0-1.249,1.69a2.115,2.115,0,0,0,.315,1.226,1.063,1.063,0,0,0,.934.462,1.174,1.174,0,0,0,1.154-.819l1.151.6a2.809,2.809,0,0,1-1.018,1.1,2.7,2.7,0,0,1-1.436.4,2.694,2.694,0,0,1-2.02-.785,2.977,2.977,0,0,1-.768-2.181A2.979,2.979,0,0,1,4.8,26.189a2.607,2.607,0,0,1,1.961-.8A2.606,2.606,0,0,1,9.247,26.772Zm5.393,0-1.236.662a1.306,1.306,0,0,0-.493-.6,1.112,1.112,0,0,0-.559-.172q-1.251,0-1.251,1.69a2.122,2.122,0,0,0,.317,1.226,1.058,1.058,0,0,0,.934.462,1.171,1.171,0,0,0,1.151-.819l1.17.6a2.911,2.911,0,0,1-1.035,1.1,2.667,2.667,0,0,1-1.419.4,2.688,2.688,0,0,1-2.029-.785,3,3,0,0,1-.758-2.181,2.978,2.978,0,0,1,.776-2.168,2.611,2.611,0,0,1,1.96-.8A2.573,2.573,0,0,1,14.64,26.772Z" transform="translate(0 -18.806)" fill="#333"/><path d="M32.044,18.806a8.94,8.94,0,0,1,6.645,2.761,9.35,9.35,0,0,1,2.724,6.79,9.426,9.426,0,0,1-9.369,9.549,8.946,8.946,0,0,1-6.576-2.814,9.3,9.3,0,0,1-2.754-6.735,9.478,9.478,0,0,1,2.754-6.79A8.862,8.862,0,0,1,32.044,18.806Zm.036,1.721a7.2,7.2,0,0,0-5.395,2.287A7.771,7.771,0,0,0,24.4,28.357a7.581,7.581,0,0,0,2.267,5.491,7.3,7.3,0,0,0,5.41,2.319,7.745,7.745,0,0,0,7.645-7.81,7.648,7.648,0,0,0-2.236-5.543A7.3,7.3,0,0,0,32.08,20.527Zm2.5,5.459v3.9H33.515v4.64H30.608v-4.64H29.542v-3.9a.613.613,0,0,1,.175-.435.566.566,0,0,1,.425-.18h3.842a.62.62,0,0,1,.6.615ZM30.76,23.529a1.3,1.3,0,1,1,2.606,0,1.3,1.3,0,1,1-2.606,0Z" transform="translate(0 -18.806)" fill="#333"/><path d="M54.762,18.806a8.783,8.783,0,0,1,6.564,2.761,9.366,9.366,0,0,1,2.689,6.79,9.154,9.154,0,0,1-2.641,6.7,8.974,8.974,0,0,1-6.612,2.848,8.748,8.748,0,0,1-6.5-2.83,9.335,9.335,0,0,1-2.719-6.719,9.532,9.532,0,0,1,2.719-6.79A8.709,8.709,0,0,1,54.762,18.806ZM47.618,25.78a7.746,7.746,0,0,0-.414,2.577,7.645,7.645,0,0,0,2.246,5.491,7.353,7.353,0,0,0,10.722-.035,6.968,6.968,0,0,0,1.268-1.671l-3.476-1.6a2.485,2.485,0,0,1-.887,1.477,2.987,2.987,0,0,1-1.655.657v1.466H54.349V32.672a4.205,4.205,0,0,1-2.8-1.146L52.816,30.2a2.9,2.9,0,0,0,2.06.869,1.449,1.449,0,0,0,.816-.221.808.808,0,0,0,.337-.734.734.734,0,0,0-.246-.579l-.89-.393L53.8,28.629l-1.469-.665Zm7.174-5.268a7.063,7.063,0,0,0-5.329,2.3,9.6,9.6,0,0,0-1.021,1.281l3.531,1.635a2.242,2.242,0,0,1,.874-1.2,2.853,2.853,0,0,1,1.5-.5V22.557h1.073v1.467a3.99,3.99,0,0,1,2.307.887l-1.2,1.278a2.675,2.675,0,0,0-1.586-.563,1.664,1.664,0,0,0-.766.173.6.6,0,0,0-.337.579.412.412,0,0,0,.083.239l1.171.546.806.375,1.487.681L62.119,30.4a9.291,9.291,0,0,0,.23-2.045,7.631,7.631,0,0,0-2.209-5.545A7.107,7.107,0,0,0,54.792,20.512Z" transform="translate(0 -18.806)" fill="#333"/><path d="M77.476,19.017a8.784,8.784,0,0,1,6.539,2.747,9.184,9.184,0,0,1,2.679,6.687,9.1,9.1,0,0,1-2.63,6.638,8.963,8.963,0,0,1-6.588,2.8A8.8,8.8,0,0,1,71,35.1a9.194,9.194,0,0,1-2.71-6.654A9.345,9.345,0,0,1,71,21.764,8.711,8.711,0,0,1,77.476,19.017Zm.031,1.709A7.059,7.059,0,0,0,72.2,23a7.638,7.638,0,0,0-2.245,5.459,7.471,7.471,0,0,0,2.232,5.426,7.176,7.176,0,0,0,5.322,2.29,7.642,7.642,0,0,0,7.525-7.716A7.45,7.45,0,0,0,82.833,23,7.105,7.105,0,0,0,77.507,20.726Z" transform="translate(0 -18.806)" fill="#333"/><path d="M72.779,27.4V25.04h9.414V27.4Zm0,4.052V29.084h9.414v2.364Z" transform="translate(0 -18.806)" fill="#333"/></svg>
